<?xml version="1.0" encoding="UTF-8"?>
<!DOCTYPE svg PUBLIC "-//W3C//DTD SVG 1.1//EN" "http://www.w3.org/Graphics/SVG/1.1/DTD/svg11.dtd">
<svg xmlns="http://www.w3.org/2000/svg" version="1.1" width="3840px" height="2160px" style="shape-rendering:geometricPrecision; text-rendering:geometricPrecision; image-rendering:optimizeQuality; fill-rule:evenodd; clip-rule:evenodd" xmlns:xlink="http://www.w3.org/1999/xlink">
<g><path style="opacity:0.979" fill="#3f474e" d="M 1105.5,667.5 C 1106.5,667.5 1107.5,667.5 1108.5,667.5C 1108.67,815.167 1108.5,962.834 1108,1110.5C 1107.67,1110.83 1107.33,1111.17 1107,1111.5C 1084.24,1110.67 1061.41,1110.17 1038.5,1110C 1038.76,1102.68 1038.42,1095.18 1037.5,1087.5C 997.784,1113.87 956.118,1123.2 912.5,1115.5C 853.466,1102.66 811.632,1068.33 787,1012.5C 762.562,941.08 777.396,878.913 831.5,826C 890.053,777.758 953.386,771.425 1021.5,807C 1027.28,810.444 1032.78,814.277 1038,818.5C 1038.33,775.167 1038.67,731.833 1039,688.5C 1060.7,681.824 1082.54,675.324 1104.5,669C 1105.06,668.617 1105.39,668.117 1105.5,667.5 Z M 935.5,853.5 C 959.661,852.173 982.327,860.006 1003.5,877C 1032.83,905.97 1042.33,940.47 1032,980.5C 1013.83,1026.92 979.83,1048.92 930,1046.5C 880.926,1038.09 852.259,1009.43 844,960.5C 842.351,913.948 862.518,880.782 904.5,861C 914.702,857.365 925.035,854.865 935.5,853.5 Z"/></g>
<g><path style="opacity:0.974" fill="#3f474e" d="M 255.5,784.5 C 296.603,780.818 334.103,790.818 368,814.5C 368.5,807.842 368.666,801.175 368.5,794.5C 392.833,794.5 417.167,794.5 441.5,794.5C 441.5,899.833 441.5,1005.17 441.5,1110.5C 417.833,1110.5 394.167,1110.5 370.5,1110.5C 369.632,1102.78 369.299,1095.11 369.5,1087.5C 319.969,1120.83 267.302,1127 211.5,1106C 146.211,1075.15 111.211,1023.48 106.5,951C 110.752,881.791 143.418,831.124 204.5,799C 221.186,791.529 238.186,786.696 255.5,784.5 Z M 267.5,853.5 C 271.24,854.682 275.074,854.682 279,853.5C 329.188,860.679 359.021,889.512 368.5,940C 371.347,980.306 355.68,1011.64 321.5,1034C 290.006,1050.3 258.006,1050.63 225.5,1035C 192.213,1014.16 175.546,984.99 175.5,947.5C 179.997,903.035 203.33,873.202 245.5,858C 252.877,856.025 260.211,854.525 267.5,853.5 Z"/></g>
<g><path style="opacity:0.966" fill="#3f474e" d="M 617.5,785.5 C 626.333,785.514 635.167,785.514 644,785.5C 698.426,791.883 733.093,821.883 748,875.5C 749.886,886.564 751.386,897.064 752.5,907C 752.092,973.612 752.092,1040.28 752.5,1107C 750.447,1108.08 748.28,1108.91 746,1109.5C 724.893,1108.86 703.726,1108.52 682.5,1108.5C 682.356,1043.72 682.356,979.216 682.5,915C 680.249,877.777 661.082,856.277 625,850.5C 603.756,848.434 583.923,852.934 565.5,864C 554.025,872.799 545.858,883.966 541,897.5C 538.372,905.582 536.706,913.582 536,921.5C 535.667,983.5 535.333,1045.5 535,1107.5C 534.333,1108.17 533.667,1108.83 533,1109.5C 511.7,1108.42 490.367,1108.42 469,1109.5C 468,1108.83 467,1108.17 466,1107.5C 465.333,1002.83 465.333,898.167 466,793.5C 488.761,792.34 511.594,792.173 534.5,793C 535.323,805.758 535.823,818.591 536,831.5C 550.063,810.795 569.23,796.961 593.5,790C 601.939,788.547 609.939,787.047 617.5,785.5 Z"/></g>
<g><path style="opacity:0.969" fill="#3f474e" d="M 1788.5,785.5 C 1819.05,783.499 1848.72,789.332 1877.5,803C 1920.84,827.835 1948.01,864.668 1959,913.5C 1962.74,935.266 1963.24,957.266 1960.5,979.5C 1877.36,980.002 1794.36,980.836 1711.5,982C 1723.02,1023.48 1750.35,1046.81 1793.5,1052C 1819.28,1055.46 1843.61,1051.13 1866.5,1039C 1876.29,1032.21 1885.12,1024.38 1893,1015.5C 1910.63,1026.15 1928.29,1036.82 1946,1047.5C 1946.67,1048.5 1946.67,1049.5 1946,1050.5C 1924.73,1080.75 1896.23,1100.92 1860.5,1111C 1804.56,1126.13 1752.23,1117.8 1703.5,1086C 1665.53,1056.5 1644.03,1018.34 1639,971.5C 1634.61,927.992 1644.61,887.992 1669,851.5C 1699.44,812.04 1739.27,790.04 1788.5,785.5 Z M 1792.5,850.5 C 1818.72,847.867 1842.39,854.034 1863.5,869C 1880.71,883.575 1891.04,902.075 1894.5,924.5C 1833.5,924.833 1772.5,924.5 1711.5,923.5C 1722.89,880.726 1749.89,856.393 1792.5,850.5 Z"/></g>
<g><path style="opacity:0.968" fill="#3f474e" d="M 2083.5,785.5 C 2116.83,783.083 2147.83,790.916 2176.5,809C 2191.87,820.203 2204.21,834.036 2213.5,850.5C 2213.17,851.167 2212.83,851.833 2212.5,852.5C 2193.19,862.07 2174.03,871.736 2155,881.5C 2138.21,857.61 2115.21,847.277 2086,850.5C 2079.17,852.12 2072.33,854.62 2065.5,858C 2049.18,872.11 2048.52,886.777 2063.5,902C 2073.19,908.011 2083.52,912.678 2094.5,916C 2112.98,920.963 2131.65,926.297 2150.5,932C 2209.64,953.94 2230.47,994.773 2213,1054.5C 2199.09,1082.44 2177.42,1100.77 2148,1109.5C 2139.56,1112.52 2131.23,1114.85 2123,1116.5C 2104.2,1117.72 2085.53,1117.72 2067,1116.5C 2046.31,1112.57 2026.47,1104.73 2007.5,1093C 1991.24,1081.41 1978.58,1066.75 1969.5,1049C 1976.85,1044.65 1984.35,1040.49 1992,1036.5C 2004.75,1031.26 2017.59,1025.26 2030.5,1018.5C 2042.67,1037.48 2060.01,1048.64 2082.5,1052C 2098.47,1053.61 2114.14,1052.28 2129.5,1048C 2148.89,1039.31 2154.39,1025.15 2146,1005.5C 2139.25,998.762 2131.42,993.595 2122.5,990C 2098.1,982.488 2073.43,974.822 2048.5,967C 1990.75,946.341 1970.59,906.507 1988,847.5C 2002.83,817.352 2026.67,798.185 2059.5,790C 2067.94,788.547 2075.94,787.047 2083.5,785.5 Z"/></g>
<g><path style="opacity:0.975" fill="#3f474e" d="M 3004.5,785.5 C 3026.87,784.041 3048.87,787.541 3070.5,796C 3108.42,814.936 3130.58,845.436 3137,887.5C 3137.2,891.421 3137.7,895.255 3138.5,899C 3138.66,968.627 3138.49,1038.46 3138,1108.5C 3115.24,1108.93 3092.4,1108.93 3069.5,1108.5C 3069.67,1043.83 3069.5,979.166 3069,914.5C 3063.82,874.309 3041.15,853.309 3001,851.5C 2953.17,853.669 2927.33,878.502 2923.5,926C 2922.72,928.74 2922.22,931.574 2922,934.5C 2921.67,993.167 2921.33,1051.83 2921,1110.5C 2898.37,1110.52 2875.54,1110.52 2852.5,1110.5C 2852.5,1005.17 2852.5,899.833 2852.5,794.5C 2875.5,794.5 2898.5,794.5 2921.5,794.5C 2921.33,807.171 2921.5,819.838 2922,832.5C 2936.43,811.368 2955.93,797.202 2980.5,790C 2988.94,788.547 2996.94,787.047 3004.5,785.5 Z"/></g>
<g><path style="opacity:0.97" fill="#3f474e" d="M 1455.5,787.5 C 1522.7,784.197 1573.53,811.863 1608,870.5C 1619.76,894.271 1626.59,919.437 1628.5,946C 1628.37,949.932 1628.37,953.932 1628.5,958C 1626.37,964.812 1625.04,971.812 1624.5,979C 1624.2,981.32 1622.87,982.487 1620.5,982.5C 1539.59,982.453 1458.76,982.119 1378,981.5C 1376.93,982.191 1375.77,982.691 1374.5,983C 1382.51,1013.67 1401.17,1035.01 1430.5,1047C 1468.68,1060.85 1505.01,1056.52 1539.5,1034C 1546.04,1029.13 1551.54,1023.29 1556,1016.5C 1574.86,1026.93 1593.53,1037.59 1612,1048.5C 1612.33,1104.83 1612.67,1161.17 1613,1217.5C 1631.52,1190.08 1657.19,1175.08 1690,1172.5C 1710.88,1169.28 1732.71,1171.45 1755.5,1179C 1787.19,1192.36 1809.02,1215.19 1821,1247.5C 1824.18,1257.91 1826.52,1268.58 1828,1279.5C 1828.17,1350.74 1828.67,1421.9 1829.5,1493C 1828.66,1494.01 1828.33,1495.18 1828.5,1496.5C 1805.59,1496.83 1782.76,1496.49 1760,1495.5C 1759.67,1428.83 1759.33,1362.17 1759,1295.5C 1753.98,1262.25 1734.64,1242.91 1701,1237.5C 1694.46,1237.8 1687.79,1237.8 1681,1237.5C 1640.42,1243.75 1617.75,1267.42 1613,1308.5C 1612.67,1370.83 1612.33,1433.17 1612,1495.5C 1589.24,1496.49 1566.41,1496.83 1543.5,1496.5C 1542.17,1366.62 1542.17,1236.79 1543.5,1107C 1531.31,1110.58 1518.97,1113.91 1506.5,1117C 1493.88,1118.24 1482.38,1119.41 1472,1120.5C 1440.57,1119.48 1410.74,1111.65 1382.5,1097C 1335.6,1068.01 1309.43,1026.18 1304,971.5C 1300.67,935.372 1307.67,900.705 1325,867.5C 1355.05,819.05 1398.55,792.384 1455.5,787.5 Z M 1456.5,850.5 C 1482.39,847.971 1505.72,854.471 1526.5,870C 1542.79,885.107 1552.79,903.274 1556.5,924.5C 1495.83,924.667 1435.17,924.5 1374.5,924C 1384.74,880.258 1412.07,855.758 1456.5,850.5 Z"/></g>
<g><path style="opacity:0.968" fill="#3f474e" d="M 2347.5,787.5 C 2394.24,784.123 2433.4,799.456 2465,833.5C 2469.54,839.424 2473.71,845.591 2477.5,852C 2477.36,852.772 2477.02,853.439 2476.5,854C 2457.07,863.466 2437.9,873.299 2419,883.5C 2396.98,853.229 2368.48,843.729 2333.5,855C 2325.68,857.826 2320.18,862.993 2317,870.5C 2312.3,883.039 2315.14,893.872 2325.5,903C 2334.16,908.104 2343.16,912.437 2352.5,916C 2374.48,921.246 2396.15,927.579 2417.5,935C 2436.96,941.813 2453.46,952.979 2467,968.5C 2481.72,990.32 2486.38,1014.65 2481,1041.5C 2472.31,1075.22 2451.14,1098.05 2417.5,1110C 2400.21,1116.51 2382.71,1119.34 2365,1118.5C 2360.56,1120.29 2356.23,1120.29 2352,1118.5C 2314.48,1119.07 2281.48,1106.07 2253,1079.5C 2245.35,1070.84 2238.85,1061.34 2233.5,1051C 2233.64,1050.23 2233.98,1049.56 2234.5,1049C 2254.6,1039.74 2274.6,1030.24 2294.5,1020.5C 2306.56,1039.96 2324.06,1051.29 2347,1054.5C 2356.06,1054.47 2365.06,1054.47 2374,1054.5C 2387.75,1053.03 2399.41,1047.37 2409,1037.5C 2417.27,1022.06 2414.44,1009.23 2400.5,999C 2386.54,991.454 2371.88,985.454 2356.5,981C 2333.17,976.89 2310.51,969.223 2288.5,958C 2251.67,935.151 2238.17,902.651 2248,860.5C 2259.36,825.474 2282.86,802.974 2318.5,793C 2328.15,790.365 2337.82,788.532 2347.5,787.5 Z"/></g>
<g><path style="opacity:0.969" fill="#3f474e" d="M 2649.5,787.5 C 2717.37,784.207 2768.21,812.207 2802,871.5C 2819.95,906.79 2824.95,943.456 2817,981.5C 2816.44,982.022 2815.77,982.355 2815,982.5C 2734.28,982.351 2653.61,982.018 2573,981.5C 2571.49,982.09 2569.99,982.756 2568.5,983.5C 2578.02,1019.19 2600.69,1041.69 2636.5,1051C 2663.11,1057.1 2689.11,1055.1 2714.5,1045C 2727.74,1037.73 2739.4,1028.56 2749.5,1017.5C 2768.38,1027.56 2786.88,1038.23 2805,1049.5C 2805.67,1050.5 2805.67,1051.5 2805,1052.5C 2777.75,1089.78 2742.75,1111.12 2700,1116.5C 2664.28,1122.36 2629.11,1118.86 2594.5,1106C 2541.39,1081.88 2509.56,1041.04 2499,983.5C 2489.73,921.972 2507.23,869.805 2551.5,827C 2580.16,803.294 2612.83,790.127 2649.5,787.5 Z M 2647.5,850.5 C 2670.21,848.344 2691.88,852.844 2712.5,864C 2733.25,878.774 2745.92,898.774 2750.5,924C 2689.16,924.833 2627.83,924.667 2566.5,923.5C 2577.64,881.45 2604.64,857.117 2647.5,850.5 Z"/></g>
<g><path style="opacity:0.963" fill="#3f474e" d="M 1298.5,788.5 C 1299.15,788.804 1299.82,789.137 1300.5,789.5C 1301.67,814.493 1301.83,839.493 1301,864.5C 1279.97,861.873 1259.14,866.373 1238.5,878C 1216.16,894.944 1204.83,917.611 1204.5,946C 1204.51,1000.63 1204.51,1055.46 1204.5,1110.5C 1181.1,1111.15 1157.94,1110.48 1135,1108.5C 1134.33,1004.17 1134.33,899.833 1135,795.5C 1158.09,794.506 1181.26,794.173 1204.5,794.5C 1204.33,810.503 1204.5,826.503 1205,842.5C 1222.18,811.087 1248.52,793.753 1284,790.5C 1288.93,789.856 1293.77,789.19 1298.5,788.5 Z"/></g>
<g><path style="opacity:0.941" fill="#3f474e" d="M 3172.5,1047.5 C 3194.84,1047.33 3217.17,1047.5 3239.5,1048C 3240.17,1048.67 3240.83,1049.33 3241.5,1050C 3241.33,1069.75 3241,1089.92 3240.5,1110.5C 3217.5,1110.5 3194.5,1110.5 3171.5,1110.5C 3171.18,1089.42 3171.51,1068.42 3172.5,1047.5 Z"/></g>
<g><path style="opacity:0.973" fill="#3f474e" d="M 3388.5,1089.5 C 3389.5,1089.5 3390.5,1089.5 3391.5,1089.5C 3391.17,1118.84 3391.5,1148.17 3392.5,1177.5C 3417.5,1178.83 3442.5,1178.83 3467.5,1177.5C 3468.09,1177.71 3468.59,1178.04 3469,1178.5C 3469.67,1200.83 3469.67,1223.17 3469,1245.5C 3468.59,1245.96 3468.09,1246.29 3467.5,1246.5C 3442.5,1245.17 3417.5,1245.17 3392.5,1246.5C 3392.17,1271.67 3391.83,1296.83 3391.5,1322C 3391.39,1351.19 3391.89,1380.35 3393,1409.5C 3397.34,1423.28 3406.84,1430.78 3421.5,1432C 3438.07,1432.59 3454.07,1432.42 3469.5,1431.5C 3469.99,1452.98 3469.49,1474.32 3468,1495.5C 3466.6,1494.95 3465.27,1494.62 3464,1494.5C 3456.71,1495.83 3449.37,1496.83 3442,1497.5C 3431,1497.5 3420,1497.5 3409,1497.5C 3403.28,1496.86 3397.61,1495.86 3392,1494.5C 3363.77,1490.71 3343.43,1475.38 3331,1448.5C 3327.71,1439.74 3325.37,1430.74 3324,1421.5C 3322.56,1363.18 3322.06,1304.85 3322.5,1246.5C 3303.53,1246.77 3284.69,1246.44 3266,1245.5C 3265.33,1223.17 3265.33,1200.83 3266,1178.5C 3284.58,1177.41 3303.24,1177.41 3322,1178.5C 3322.17,1155.83 3322.67,1133.16 3323.5,1110.5C 3345.37,1103.65 3367.04,1096.65 3388.5,1089.5 Z"/></g>
<g><path style="opacity:0.973" fill="#3f474e" d="M 2011.5,1170.5 C 2016.38,1170.74 2021.22,1170.74 2026,1170.5C 2103.24,1177.32 2154.24,1217.66 2179,1291.5C 2194.58,1360.1 2176.75,1417.93 2125.5,1465C 2085.72,1496.33 2042.06,1508.33 1994.5,1501C 1934.33,1490.84 1891.5,1458 1866,1402.5C 1849.82,1361.56 1848.82,1320.56 1863,1279.5C 1888.23,1217.92 1933.56,1181.92 1999,1171.5C 1999.33,1171.83 1999.67,1172.17 2000,1172.5C 2003.94,1171.86 2007.77,1171.2 2011.5,1170.5 Z M 2005.5,1239.5 C 2039.05,1235.99 2067.71,1246.32 2091.5,1270.5C 2116.36,1302.68 2121.86,1338.01 2108,1376.5C 2093.12,1409.75 2067.78,1428.75 2032,1433.5C 2000.09,1438.19 1971.76,1428.53 1947,1404.5C 1922.61,1373.14 1916.27,1338.47 1928,1300.5C 1941.58,1267.87 1965.25,1247.87 1999,1240.5C 2000.27,1240.62 2001.6,1240.95 2003,1241.5C 2003.99,1240.93 2004.83,1240.27 2005.5,1239.5 Z"/></g>
<g><path style="opacity:0.973" fill="#3f474e" d="M 2530.5,1170.5 C 2535.38,1170.74 2540.22,1170.74 2545,1170.5C 2600.16,1173.95 2644.16,1198.28 2677,1243.5C 2692.37,1268.16 2701.21,1294.99 2703.5,1324C 2702.88,1332.9 2702.88,1342.23 2703.5,1352C 2692.54,1426.21 2651.71,1475.04 2581,1498.5C 2520.9,1512.16 2467.4,1497.83 2420.5,1455.5C 2383.72,1416.55 2367.89,1370.22 2373,1316.5C 2381.54,1255.59 2413.71,1211.75 2469.5,1185C 2489.72,1176.69 2510.05,1171.85 2530.5,1170.5 Z M 2524.5,1239.5 C 2563.65,1235.69 2594.82,1249.36 2618,1280.5C 2632.41,1304.28 2637.08,1330.28 2632,1358.5C 2621.52,1401.66 2594.52,1426.66 2551,1433.5C 2518.41,1438.59 2489.74,1428.59 2465,1403.5C 2443.67,1376.06 2436.83,1345.22 2444.5,1311C 2456.83,1270.47 2483.5,1246.64 2524.5,1239.5 Z"/></g>
<g><path style="opacity:0.971" fill="#3f474e" d="M 2359.5,1174.5 C 2364.27,1174.48 2369.44,1174.81 2375,1175.5C 2375.5,1200.16 2375.67,1224.83 2375.5,1249.5C 2346.23,1246.85 2321.06,1254.85 2300,1273.5C 2287.96,1287.62 2280.96,1303.95 2279,1322.5C 2278.83,1380.17 2278.33,1437.84 2277.5,1495.5C 2254.88,1496.49 2232.21,1496.82 2209.5,1496.5C 2209.5,1390.83 2209.5,1285.17 2209.5,1179.5C 2232.17,1179.33 2254.84,1179.5 2277.5,1180C 2278.33,1196.09 2278.83,1212.26 2279,1228.5C 2292.36,1203.05 2312.69,1186.71 2340,1179.5C 2346.53,1177.56 2353.03,1175.89 2359.5,1174.5 Z"/></g>
<g><path style="opacity:0.971" fill="#3f474e" d="M 2688.5,1179.5 C 2712.17,1179.33 2735.84,1179.5 2759.5,1180C 2760,1180.5 2760.5,1181 2761,1181.5C 2780.21,1252.35 2800.05,1323.02 2820.5,1393.5C 2842.06,1322.51 2864.06,1251.35 2886.5,1180C 2908.07,1179.17 2929.57,1179.34 2951,1180.5C 2973.05,1251.81 2994.89,1322.81 3016.5,1393.5C 3036.14,1322.63 3056.31,1251.63 3077,1180.5C 3101.43,1179.51 3125.93,1179.17 3150.5,1179.5C 3134.83,1232.29 3118.66,1284.29 3102,1335.5C 3085.48,1388.89 3068.65,1442.23 3051.5,1495.5C 3029.18,1496.5 3006.84,1496.83 2984.5,1496.5C 2963.11,1426.62 2941.27,1356.62 2919,1286.5C 2897.87,1355.91 2876.21,1425.57 2854,1495.5C 2831.67,1496.83 2809.33,1496.83 2787,1495.5C 2754.22,1391.14 2721.05,1286.47 2687.5,1181.5C 2687.86,1180.82 2688.2,1180.15 2688.5,1179.5 Z"/></g>
<g><path style="opacity:0.967" fill="#3f474e" d="M 3172.5,1179.5 C 3195.18,1179.17 3217.84,1179.5 3240.5,1180.5C 3240.71,1181.09 3241.04,1181.59 3241.5,1182C 3241.06,1286.44 3240.72,1391.28 3240.5,1496.5C 3217.59,1496.83 3194.76,1496.49 3172,1495.5C 3171.17,1390.1 3171.34,1284.76 3172.5,1179.5 Z"/></g>
<g><path style="opacity:0.97" fill="#3f474e" d="M 3501.5,1181.5 C 3581.83,1181.5 3662.17,1181.5 3742.5,1181.5C 3742.67,1203.17 3742.5,1224.84 3742,1246.5C 3691.11,1307.38 3640.27,1368.22 3589.5,1429C 3640.5,1429.5 3691.5,1429.67 3742.5,1429.5C 3742.5,1451.83 3742.5,1474.17 3742.5,1496.5C 3661.69,1497 3581.03,1496.5 3500.5,1495C 3501.33,1473.24 3501.83,1451.41 3502,1429.5C 3552.83,1368.5 3603.67,1307.5 3654.5,1246.5C 3603.91,1246.14 3553.24,1245.98 3502.5,1246C 3501.51,1224.58 3501.17,1203.08 3501.5,1181.5 Z"/></g>
</svg>
